# xmcd
#
# Track frame offsets: 
#        150
#        14257
#        32499
#        49794
#        70938
#        99305
#        114765
#        129931
#        151597
#        165453
#        178475
#        194156
#        217131
#        235339
#        251637
#        266920
#
# Disc length: 3871 seconds
#
# Revision: 0
# Processed by: cddbd v1.5.2PL0 Copyright (c) Steve Scherf et al.
# Submitted via: ExactAudioCopy v0.95b2
#
DISCID=dd0f1d10
DTITLE=Various Artist - Лучшие Дуэты Шансона
DYEAR=2006
DGENRE=Chanson
TTITLE0=Голицына Катерина/Как Мы С Тобою Миримся (& Кальянов Александр
TTITLE0=)
TTITLE1=Снопова Татьяна/90-60-90 (& Сулей Дмитрий)
TTITLE2=Шуфутинский Михаил/Колея (& Аллегрова Ирина)
TTITLE3=Болдышева Катя/Посадка На Рейс (& Бобков Слава)
TTITLE4=Макаревич Андрей/Три Окна (& Леонидов Максим)
TTITLE5=Медяник Слава/Я Сам По Себе (& Успенская Любовь)
TTITLE6=Московский Иван/Троечка (& Астахова Светлана)
TTITLE7=Голицына Катерина/Таксист (& Волин Виталий)
TTITLE8=еонидов Макасим/Именины У Кристины (& Фоменко Николай)
TTITLE9=Снопова Татьяна/Кисс-Кисс (& Шутов Алексей)
TTITLE10=Черняков Владимир/Сладкий Яд (& Александрова Марина)
TTITLE11=Белявский Дмитрий/Письма (& Джус)
TTITLE12=Голицына Катерина/Отпусти Мою Любовь (& Звинцов Александр)
TTITLE13=Алтайский Евгений/Колечко (& Соловьёва Ирина)
TTITLE14=Успенская Любовь/Люба-Любочка (Шуфутинский Михаил)
TTITLE15=Снопова Татьяна/Любовь Под Амнистией (& Сулей Дмитрий)
EXTD=
EXTT0=
EXTT1=
EXTT2=
EXTT3=
EXTT4=
EXTT5=
EXTT6=
EXTT7=
EXTT8=
EXTT9=
EXTT10=
EXTT11=
EXTT12=
EXTT13=
EXTT14=
EXTT15=
PLAYORDER=
